<svg xmlns="http://www.w3.org/2000/svg" viewBox="0 0 1024 535"><path fill="#8bc53f" d="M0 0h1024v535H0z"/><path d="M148.74 196.27c5.68.18 11.79-.75 17.04 1.91 7.07 3.72 6.22 15.45-.72 18.85-5.02 2.65-10.89 1.62-16.34 1.79 0-7.52-.03-15.04.02-22.55z" fill="#8bc43e"/><path d="M82.02 186.183h40.648v13.373H97.083v12.775h24.06v13.38h-24.06v29.09H82.02v-68.61zm76.17 30.422q4.734 0 6.768-2.068 2.073-2.068 2.073-6.8 0-4.688-2.07-6.71-2.03-2.022-6.77-2.022h-6.33v17.6h6.34zm-6.338 12.224v25.96h-15.06v-68.61h23.002q11.54 0 16.9 4.55 5.4 4.55 5.4 14.38 0 6.8-2.818 11.16-2.777 4.36-8.41 6.43 3.09.82 5.515 3.77 2.47 2.89 4.97 8.82l8.18 19.48h-16.04l-7.12-17.05q-2.15-5.15-4.38-7.03-2.19-1.89-5.87-1.89h-4.26zm46.594-42.65h40.646v13.37h-25.585v12.77h24.06v13.38h-24.06v15.71h26.446v13.37h-41.507v-68.61zm54.77 0h40.646v13.37h-25.585v12.77h24.06v13.38h-24.06v15.71h26.445v13.37h-41.507v-68.61zm77.654 0h14.436l10.093 49.86 10.01-49.86h14.51l10.01 49.86 10.09-49.86h14.32l-13.77 68.61H383.2l-10.6-52.16-10.485 52.16h-17.37l-13.885-68.61zm93.382 0h15.062v68.61h-15.062v-68.61zm29.888 0h40.647v13.37h-25.585v12.77h24.06v13.38h-24.06v29.09h-15.06v-68.61zm54.77 0h15.062v68.61H508.91v-68.61z" style="-inkscape-font-specification:'sans-serif Bold'" font-size="86.836" font-family="sans-serif" letter-spacing="0" word-spacing="0" fill="#373737" font-weight="bold"/><path d="M85.802 336.734l-5.73 17.545h-5.827l21.87-64.27h7.164l21.77 64.27h-6.02l-5.73-17.55H85.8zm13.848-42.127L87.33 331.95h24.45l-12.13-37.343zm73.156 59.673l-30.848-58.08q.764 11.728.764 22.142v35.935h-5.443v-64.27h7.35l31.04 58.076q-.77-10.883-.77-19.046v-39.03h5.44v64.27h-7.54zm46.034 0h-5.73v-25.052l-20.916-39.218h6.398l17.573 34.245 17.287-34.245h6.112l-20.725 39.124v25.145zm74.97 0l-14.325-57.984-14.326 57.983h-6.98l-14.42-64.27h5.82l12.42 59.1L276.32 290h6.4l14.61 59.107L309.847 290h5.443l-14.322 64.27h-7.16zm40.78-31.432v31.43h-5.73V290.01h5.73v28.053h31.327V290.01h5.73v64.27h-5.73v-31.432H334.59zm63.99-28.148v23.926h23.207v4.69H398.58v26.27h28.173v4.693H392.85v-64.27h33.235l-.67 4.69H398.58zm48.898 30.775v28.804h-5.73v-64.27H457.6q23.304 0 23.304 17.45 0 6.94-3.725 11.07-3.73 4.13-10.89 5.91l17.95 29.83h-6.88l-16.81-28.81h-13.08zm10.887-4.597q16.427 0 16.427-13.417 0-6.56-4.107-9.66-4.107-3.19-13.275-3.19h-9.932v26.27h10.887zm45.46-26.178v23.926h23.208v4.69h-23.208v26.27H532v4.693h-33.905v-64.27h33.236l-.66 4.69h-26.84z" style="line-height:119.00000572%;-inkscape-font-specification:'Fira Sans Light'" font-size="94.66" font-family="Fira Sans" letter-spacing="0" word-spacing="0" fill="#373737" font-weight="300"/><path fill="#404041" d="M645.366 386.306H791.33V535H645.366z"/><circle r="9.051" cy="454.317" cx="665.076" fill="#fff"/><circle r="9.051" cy="425.194" cx="665.076" fill="#fff"/><path fill="#fff" d="M647.67 362.676h141.454v23.644H647.67z"/><path d="M649.43 201.39c1.96-4.71 6.23-8.84 11.52-9.2 3.31-.42 6.34 1.22 9.21 2.63-.05 55.98.04 111.95-.05 167.93-7.48-.1-14.96-.09-22.44-.02.09-47.92.03-95.84.03-143.77.09-5.86-.69-12.04 1.73-17.57z" fill="#eec7af"/><path d="M813.38 192.16c5.55-.73 10.99-2.39 16.61-2.5 6.17.15 12.09 4.48 13.79 10.47 1.26 4.35 2.11 9.13.67 13.55-1.71 5.01-6.27 8.78-11.42 9.83-6.52 1.41-13.13 2.31-19.66 3.6 0-11.65-.01-23.3.01-34.95zm-.01 41.29c4.54-.76 9.03-1.96 13.65-2.12 5.82-.27 11.51 3.42 13.78 8.76 1.55 3.76 2.13 7.91 1.92 11.97-.32 5.98-5.01 11.27-10.75 12.75-6.11 1.59-12.43 2.24-18.6 3.56-.01-11.64 0-23.28 0-34.92zm0 41.02c4.2-.76 8.37-1.83 12.65-1.98 6.21-.17 12.3 4 14.18 9.96 1.19 3.99 2.07 8.24 1.28 12.4-1.11 5.49-5.61 10.1-11.09 11.31-5.62 1.34-11.37 2.02-17.01 3.2-.02-11.63-.01-23.26-.01-34.89zm.01 39.18c3.7.17 7.67.02 10.97 1.98 3.64 1.97 6.31 5.52 7.29 9.53 1.64 5.69 1.96 12.53-2.17 17.28-3.81 4.95-10.4 5.59-16.1 6.6.01-11.8-.02-23.6.01-35.39z" fill="#eec7ae"/><path d="M684.772 152.238H798.78v215.626H684.77z" fill="#404041" stroke="#404041" stroke-width="29.292" stroke-linejoin="round"/><path fill="#fff" d="M681.13 165.31h121.345v177.01H681.13z"/><circle r="9.051" cy="363.193" cx="742.309" fill="#929396"/><path fill="#929497" d="M719.92 151.29h43.71v3.513h-43.71z"/><path fill="#8bc43e" d="M692.44 272.45h96.44v24.95h-96.44z"/><circle cx="741.717" cy="255.653" r="7.277" fill="#404041"/><path d="M692.33 213.41c11.5-11.17 26.52-19.03 42.62-20.48 20.64-2.38 41.53 6.01 56.16 20.46-1.7 2.13-3.58 4.11-5.62 5.91-11.15-11.22-26.56-18.4-42.46-18.64-12.88-.37-25.71 3.81-36.21 11.19-3.24 2.26-6.13 4.97-9.25 7.38-1.77-1.93-3.53-3.86-5.24-5.82z" fill="#404041"/><path d="M705.95 227.18c7.93-7.77 17.91-13.85 29.07-15.34 15.43-2.45 31.51 3.88 42.05 15.2-.82 2.41-3.17 3.88-4.77 5.76-8.04-8.42-19.5-13.74-31.23-13.41-11.36.01-22.16 5.45-30.07 13.42-1.7-1.87-3.39-3.74-5.05-5.63z" fill="#404040"/><path d="M719.32 240.06c5.74-5.72 13.47-9.68 21.68-9.72 8.67-.35 17.06 3.6 23.08 9.69-1.67 1.83-3.35 3.67-5 5.53-4.84-4.62-11.28-7.96-18.13-7.44-6.36-.13-12.04 3.3-16.62 7.39-1.66-1.83-3.34-3.63-5.01-5.45z" fill="#404041"/><path d="M710.988 289.537q-.906.47-1.89.71-.98.238-2.05.238-3.187 0-5.05-1.777-1.862-1.786-1.862-4.836 0-3.06 1.863-4.837 1.86-1.786 5.05-1.786 1.06 0 2.05.23.98.24 1.88.71v2.64q-.92-.63-1.81-.92-.89-.29-1.87-.29-1.76 0-2.77 1.12-1.01 1.13-1.01 3.11 0 1.97 1 3.1 1.01 1.13 2.77 1.13.98 0 1.87-.29.89-.29 1.8-.92v2.64zm7.152-6.913q-1.017 0-1.555.735-.53.72-.53 2.1 0 1.37.53 2.11.538.72 1.555.72 1 0 1.53-.73.53-.74.53-2.11t-.53-2.1q-.53-.74-1.53-.74zm0-2.188q2.47 0 3.854 1.334 1.393 1.333 1.393 3.69 0 2.36-1.393 3.692-1.385 1.333-3.854 1.333-2.478 0-3.88-1.333-1.392-1.333-1.392-3.69 0-2.36 1.393-3.692 1.41-1.334 3.88-1.334zm17.098 3.974v5.828h-3.076v-4.46q0-1.24-.06-1.71-.05-.47-.188-.692-.18-.3-.487-.46-.307-.172-.7-.172-.957 0-1.504.743-.547.735-.547 2.042v4.7h-3.06v-9.57h3.06v1.4q.692-.84 1.47-1.23.777-.4 1.717-.4 1.658 0 2.512 1.01.863 1.01.863 2.95zm12.476 0v5.828h-3.076v-4.46q0-1.24-.06-1.71-.05-.47-.188-.692-.18-.3-.487-.46-.308-.172-.7-.172-.958 0-1.505.743-.546.735-.546 2.042v4.7h-3.06v-9.57h3.06v1.4q.692-.84 1.47-1.23.777-.4 1.717-.4 1.65 0 2.51 1.01.86 1.01.86 2.95zm12.406 1.017v.87h-7.15q.11 1.078.777 1.616.666.54 1.862.54.96 0 1.97-.283 1.01-.29 2.08-.872v2.358q-1.09.41-2.17.616-1.09.213-2.17.213-2.6 0-4.04-1.316-1.44-1.33-1.44-3.71 0-2.34 1.41-3.69 1.42-1.34 3.89-1.34 2.25 0 3.6 1.36 1.352 1.36 1.352 3.63zm-3.143-1.017q0-.872-.513-1.4-.504-.54-1.324-.54-.89 0-1.445.504-.555.496-.692 1.436h3.974zm13.185-3.444v2.495q-.624-.42-1.257-.63-.623-.2-1.298-.2-1.282 0-2 .75-.71.75-.71 2.09t.71 2.1q.718.75 2 .75.717 0 1.358-.21.65-.21 1.197-.63v2.506q-.718.266-1.462.395-.735.134-1.478.134-2.59 0-4.05-1.33t-1.46-3.7q0-2.364 1.46-3.69 1.46-1.332 4.05-1.332.752 0 1.478.14.735.13 1.462.394zm5.998-3.016v2.717h3.153v2.188h-3.153v4.06q0 .665.265.904.265.23 1.05.23h1.573v2.18h-2.623q-1.812 0-2.572-.75-.752-.76-.752-2.57v-4.06h-1.52v-2.19h1.52v-2.72h3.06z" style="line-height:125%;-inkscape-font-specification:'sans-serif Bold'" font-weight="bold" font-size="17.5" font-family="sans-serif" letter-spacing="0" word-spacing="0" fill="#fff"/><path d="M762.94 296.71c3.22-3.1 7.39-5.54 12.01-5.41 5.23-.21 9.84 2.78 13.61 6.1 1.43 2.36 2.63 4.86 3.58 7.46 3.67 10.8 5.87 22.1 10.19 32.69 1.35 8.65 4.75 16.79 6.67 25.31.86-3.43 2.05-6.84 4.32-9.61 4.92-3.96 11.37-6.11 17.68-5.74 4.75.31 8.45 3.61 11.29 7.14 1.35-4.21 3.4-8.58 7.51-10.73 4.9-2.56 10.66-4.22 16.19-3.16 4.02.68 6.96 3.68 9.49 6.65.98-3.33 1.9-6.93 4.5-9.41 6.75-5.69 18.44-8.21 25.21-1.21 3.39 3.33 4.27 8.2 5.6 12.57 5.15 17.8 12.27 42.366 17.49 60.146-44.425 18.742-88.115 27.803-127.015 45.408-2.09-8.4-7.515-23.344-9.935-31.634-3.44-12.37-7.13-24.66-10.74-36.97-.38-1.27-.75-2.54-1.11-3.8-3.85-13.41-7.82-26.79-11.71-40.19-2.7-9.31-5.54-18.58-8.13-27.92-1.82-6.05-.27-12.6 3.3-17.69z" fill="#efc7af"/><path d="M766.24 304.1c1.39-6.25 10.32-8.43 14.89-4.3 2.8 3.5 3.38 8.16 4.66 12.34-5.49 1.92-11.09 3.47-16.71 4.9-1.33-4.19-3.35-8.44-2.84-12.94z" fill="#f0daca"/><circle cx="841.874" cy="518.451" r="9.051" fill="#fff"/><circle cx="839.771" cy="489.514" r="9.051" fill="#fff"/><path d="M799.132 447.477l127.18-44.683 3.08 9.682-129.152 38.71z" fill="#dfb79e"/><path fill="#e6e7e8" d="M798.59 450.397l134.913-39.256 8.088 27.45-134.91 39.26z"/><path fill="#404040" d="M803.237 474.402l138.55-40.06 31.12 101.836-138.55 40.06z"/><ellipse cx="841.874" cy="518.452" rx="9.052" ry="9.051" fill="#fff"/><circle cx="839.771" cy="491.515" r="9.051" fill="#fff"/></svg>